<?xml version="1.0" standalone="no"?>
<!DOCTYPE svg PUBLIC "-//W3C//DTD SVG 20010904//EN"
 "http://www.w3.org/TR/2001/REC-SVG-20010904/DTD/svg10.dtd">
<svg version="1.0" xmlns="http://www.w3.org/2000/svg"
 width="2816.000000pt" height="1536.000000pt" viewBox="0 0 2816.000000 1536.000000"
 preserveAspectRatio="xMidYMid meet">

<g transform="translate(0.000000,1536.000000) scale(0.100000,-0.100000)"
fill="#000000" stroke="none">
<path d="M15975 10873 c96 -7 230 -25 244 -33 29 -14 87 -30 109 -30 12 0 22
-4 22 -10 0 -5 8 -10 19 -10 10 0 24 -7 31 -15 7 -8 23 -15 36 -15 13 0 24 -4
24 -9 0 -5 8 -7 18 -4 12 3 26 -6 41 -26 13 -16 28 -28 34 -27 7 2 9 1 5 -1
-15 -8 13 -43 33 -43 12 0 77 -16 145 -35 68 -20 137 -38 153 -40 45 -5 71
-15 71 -26 0 -6 5 -7 10 -4 6 3 24 -4 41 -15 16 -12 32 -20 35 -18 4 5 -52 58
-61 58 -3 0 -34 18 -69 40 -85 54 -272 141 -371 174 -186 60 -399 97 -540 94
-38 -1 -52 -3 -30 -5z"/>
<path d="M11658 10608 c-345 -31 -657 -173 -875 -399 -40 -41 -84 -92 -99
-114 -14 -22 -29 -42 -33 -45 -12 -10 -47 -65 -54 -85 -4 -13 1 -10 16 9 47
62 187 213 235 253 78 66 233 168 306 202 200 92 457 155 669 163 37 1 67 6
67 11 0 4 -4 5 -10 2 -5 -3 -10 -2 -10 2 0 11 -100 11 -212 1z"/>
<path d="M11905 10610 c3 -5 11 -10 16 -10 6 0 7 5 4 10 -3 6 -11 10 -16 10
-6 0 -7 -4 -4 -10z"/>
<path d="M16300 10606 c0 -2 7 -7 16 -10 8 -3 12 -2 9 4 -6 10 -25 14 -25 6z"/>
<path d="M16345 10600 c-4 -6 5 -10 20 -10 15 0 24 4 20 10 -3 6 -12 10 -20
10 -8 0 -17 -4 -20 -10z"/>
<path d="M16405 10600 c-3 -5 9 -11 27 -14 180 -28 240 -40 348 -71 246 -71
446 -191 640 -385 113 -114 108 -101 -18 39 -31 35 -57 68 -57 74 0 9 -55 58
-143 128 -7 6 -21 8 -31 4 -10 -3 -32 4 -52 17 -19 13 -46 29 -62 37 -20 11
-24 17 -15 23 8 6 5 7 -9 3 -16 -4 -23 -2 -23 7 0 26 -243 110 -350 122 -25 2
-45 5 -45 7 0 1 -27 3 -60 4 -33 1 -79 5 -102 9 -23 3 -45 1 -48 -4z m802
-250 c14 -11 21 -20 15 -20 -12 0 -60 39 -49 40 5 0 20 -9 34 -20z"/>
<path d="M12025 10590 c33 -9 121 -13 113 -5 -2 3 -36 7 -74 9 -46 3 -59 2
-39 -4z"/>
<path d="M12150 10580 c0 -5 14 -10 31 -10 17 0 28 4 24 10 -3 6 -17 10 -31
10 -13 0 -24 -4 -24 -10z"/>
<path d="M16058 10583 c6 -2 18 -2 25 0 6 3 1 5 -13 5 -14 0 -19 -2 -12 -5z"/>
<path d="M12230 10570 c0 -5 7 -10 16 -10 8 0 12 5 9 10 -3 6 -10 10 -16 10
-5 0 -9 -4 -9 -10z"/>
<path d="M15911 10566 c-12 -14 -11 -16 5 -15 11 1 30 5 44 10 l25 9 -27 -4
c-15 -2 -29 1 -31 7 -1 5 -9 2 -16 -7z"/>
<path d="M15720 10538 c-36 -11 -74 -27 -84 -36 -11 -10 -16 -11 -12 -4 8 14
-10 17 -18 3 -13 -20 29 -19 114 1 56 14 90 27 90 35 0 15 17 18 22 3 2 -6 14
-6 33 -1 35 11 35 11 -30 16 -32 2 -73 -4 -115 -17z"/>
<path d="M15576 10479 c3 -5 1 -9 -5 -9 -5 0 -17 -3 -27 -7 -12 -4 -15 -3 -10
5 5 8 2 10 -8 6 -9 -3 -16 -10 -16 -15 0 -4 -7 -5 -17 -2 -12 5 -14 3 -8 -7 6
-10 4 -12 -9 -7 -25 10 -123 -33 -103 -45 18 -10 49 0 41 13 -3 5 1 6 9 4 7
-3 53 10 101 28 65 25 82 36 67 40 -12 3 -19 1 -15 -4z"/>
<path d="M17118 10413 c7 -3 16 -2 19 1 4 3 -2 6 -13 5 -11 0 -14 -3 -6 -6z"/>
<path d="M17375 10260 c38 -38 72 -70 74 -70 3 0 -26 32 -64 70 -38 39 -72 70
-74 70 -3 0 26 -31 64 -70z"/>
<path d="M14120 10254 c-31 -29 -54 -43 -62 -38 -7 4 -5 -2 5 -12 17 -18 19
-17 75 39 67 68 53 77 -18 11z"/>
<path d="M13797 10283 c-4 -3 -7 -11 -7 -17 0 -6 5 -5 12 2 6 6 9 14 7 17 -3
3 -9 2 -12 -2z"/>
<path d="M11305 10250 c-44 -22 -54 -24 -36 -10 13 11 22 22 20 24 -7 7 -136
-61 -202 -106 -213 -144 -406 -425 -477 -693 -52 -200 -82 -514 -62 -655 8
-58 9 -48 9 82 0 111 4 152 14 165 8 9 9 14 3 10 -7 -4 -11 2 -11 18 0 16 4
22 11 18 7 -4 6 -1 -1 8 -9 11 -10 25 -4 47 5 17 7 33 4 35 -2 3 1 16 8 29 7
12 14 39 16 58 3 40 8 68 16 90 3 8 15 47 27 85 33 107 88 201 158 270 56 56
79 87 52 70 -15 -9 -12 11 4 24 11 10 15 9 18 -4 2 -13 9 -11 40 10 20 14 44
25 53 25 9 0 30 7 46 16 l30 15 -6 -38 c-5 -29 7 -11 48 72 79 159 166 277
239 322 32 20 58 37 58 39 0 8 -17 2 -75 -26z m-450 -386 c-9 -9 -18 -14 -21
-11 -9 9 6 27 22 27 13 0 13 -2 -1 -16z m90 -2 c-3 -3 -11 0 -18 7 -9 10 -8
11 6 5 10 -3 15 -9 12 -12z m-38 -17 c0 -8 -4 -15 -9 -15 -4 0 -8 7 -8 15 0 8
4 15 8 15 5 0 9 -7 9 -15z m-96 -18 c-10 -9 -11 -8 -5 6 3 10 9 15 12 12 3 -3
0 -11 -7 -18z m19 -31 c0 -23 -16 -27 -17 -5 -1 10 2 19 8 19 5 0 9 -6 9 -14z"/>
<path d="M13910 10261 c0 -19 36 -58 45 -49 3 3 1 16 -4 30 -12 32 -41 45 -41
19z"/>
<path d="M13990 10270 c0 -5 7 -10 16 -10 8 0 12 5 9 10 -3 6 -10 10 -16 10
-5 0 -9 -4 -9 -10z"/>
<path d="M14195 10250 c-15 -29 -13 -56 5 -45 14 8 30 64 20 70 -5 3 -16 -8
-25 -25z"/>
<path d="M14370 10266 c-6 -8 -10 -25 -8 -38 4 -22 5 -22 12 -3 4 11 12 28 17
38 11 21 -4 23 -21 3z"/>
<path d="M14025 10240 c3 -5 11 -10 16 -10 6 0 7 5 4 10 -3 6 -11 10 -16 10
-6 0 -7 -4 -4 -10z"/>
<path d="M16890 10241 c0 -6 4 -11 9 -11 5 0 12 -8 15 -17 6 -16 6 -16 -12 0
-10 9 -25 17 -33 17 -9 -1 -5 -9 11 -23 62 -54 210 -275 210 -313 0 -7 5 -16
11 -20 8 -5 10 1 7 20 -5 26 5 35 17 16 4 -6 15 -8 26 -5 13 4 19 2 19 -9 0
-9 5 -16 10 -16 6 0 10 6 10 14 0 8 5 18 12 22 6 4 8 3 5 -3 -4 -6 0 -16 7
-22 10 -8 16 -9 21 -1 3 6 10 8 15 5 15 -9 41 7 35 23 -5 12 -3 13 10 2 12
-10 13 -15 4 -21 -7 -4 -9 -14 -4 -25 8 -18 8 -18 12 -1 4 17 23 24 23 9 0
-12 -40 -47 -40 -36 0 5 -5 1 -11 -8 -7 -13 -5 -22 11 -38 11 -11 24 -20 29
-20 5 0 11 -7 15 -15 3 -8 15 -15 26 -15 12 0 19 -4 16 -9 -5 -8 17 -42 56
-85 10 -11 18 -25 18 -32 0 -7 4 -14 8 -16 10 -4 79 -209 92 -275 26 -127 30
-170 31 -334 1 -196 -4 -263 -33 -429 -32 -187 -122 -478 -203 -660 -28 -63
-39 -97 -32 -102 14 -8 27 -1 27 15 0 7 -4 6 -10 -3 -7 -10 -10 -11 -10 -2 0
7 6 15 14 18 9 3 12 12 9 21 -4 10 -2 14 4 10 13 -8 37 38 28 54 -5 7 -4 10 3
5 16 -10 90 147 102 214 5 30 16 78 25 105 15 45 51 201 75 325 42 209 47 518
12 710 -25 136 -61 266 -103 366 -36 86 -169 291 -230 354 -93 95 -269 221
-314 224 -13 0 -23 5 -22 10 1 6 -6 12 -15 14 -10 2 -18 -1 -18 -7z m470 -413
c0 -5 -5 -6 -12 -2 -7 4 -8 3 -4 -4 4 -7 13 -12 19 -12 7 0 22 -18 35 -40 26
-47 29 -66 4 -27 -10 15 -22 24 -26 20 -4 -4 -4 0 -1 9 6 14 -13 30 -39 32
-11 1 -17 36 -10 48 7 10 34 -10 34 -24z"/>
<path d="M13680 10202 c0 -4 7 -16 15 -26 11 -15 18 -17 26 -9 6 6 9 16 5 21
-7 11 -46 23 -46 14z"/>
<path d="M14436 10185 c4 -8 1 -15 -5 -15 -6 0 -11 3 -11 8 0 4 -12 8 -26 8
-19 2 -24 -2 -20 -13 3 -8 6 -21 6 -28 0 -10 10 -8 39 8 23 12 37 27 34 34 -3
7 -9 13 -14 13 -4 0 -6 -7 -3 -15z"/>
<path d="M14060 10175 c0 -16 16 -20 24 -6 3 5 -1 11 -9 15 -9 3 -15 0 -15 -9z"/>
<path d="M14507 10087 c-19 -134 -126 -347 -174 -347 -7 0 -13 -4 -13 -9 0
-10 -179 -173 -217 -198 -20 -13 -26 -12 -70 18 -26 18 -75 53 -108 79 -33 26
-66 45 -73 43 -8 -3 -10 1 -5 13 4 12 3 15 -6 10 -14 -9 -43 12 -35 25 3 5 0
9 -6 9 -5 0 -24 15 -41 33 l-31 32 30 -40 c63 -84 288 -275 324 -275 34 0 248
200 326 304 30 39 83 143 88 170 1 12 8 42 14 68 6 25 10 64 8 85 -3 35 -4 33
-11 -20z m-632 -427 c3 -5 1 -10 -4 -10 -6 0 -11 5 -11 10 0 6 2 10 4 10 3 0
8 -4 11 -10z"/>
<path d="M13647 10056 c-4 -10 -1 -13 8 -9 8 3 12 9 9 14 -7 12 -11 11 -17 -5z"/>
<path d="M13262 10031 c7 -12 17 -21 23 -21 11 -1 65 -46 65 -55 0 -11 -18 -4
-40 15 -23 20 -40 26 -40 14 0 -4 8 -13 18 -20 16 -12 15 -13 -8 -15 -14 -1
-31 -1 -37 0 -24 3 -13 -14 25 -39 67 -45 186 -138 232 -180 43 -40 71 -60 86
-60 3 0 1 6 -5 14 -8 10 -9 16 -1 21 5 3 10 1 10 -4 0 -6 5 -11 10 -11 6 0 10
7 10 16 0 8 4 13 9 10 5 -4 11 -1 13 5 2 7 18 0 38 -17 l35 -28 -36 40 c-20
21 -46 53 -59 69 -13 17 -20 22 -17 13 4 -10 2 -18 -4 -18 -6 0 -7 -5 -4 -11
4 -6 9 -8 12 -5 3 3 12 -2 20 -10 9 -8 12 -18 9 -22 -4 -3 -10 -1 -14 5 -4 6
-20 15 -35 18 -18 5 -26 13 -25 24 2 9 -3 16 -12 15 -9 -1 -17 8 -17 19 -2 15
1 17 10 8 6 -6 17 -11 25 -11 19 0 5 12 -113 101 -153 115 -199 145 -183 120z
m124 -96 c8 -8 23 -19 32 -24 9 -5 14 -13 10 -16 -4 -4 -15 0 -24 9 -9 10 -22
15 -30 12 -7 -3 -18 3 -26 12 -12 16 -11 16 6 2 18 -14 19 -13 13 3 -8 21 -1
22 19 2z m-54 -24 l8 -22 -30 21 c-36 25 -36 27 -8 25 12 -1 25 -11 30 -24z
m152 -47 c15 -14 26 -27 23 -30 -2 -3 -20 9 -38 25 -40 37 -26 41 15 5z m47
-98 c-8 -10 -9 -16 -1 -21 5 -3 10 -11 10 -18 0 -6 -7 -1 -16 12 -14 19 -14
25 -3 32 20 13 23 11 10 -5z m34 -46 c3 -5 1 -10 -4 -10 -6 0 -11 5 -11 10 0
6 2 10 4 10 3 0 8 -4 11 -10z"/>
<path d="M14422 10013 c-22 -4 -23 -5 -5 -18 24 -19 30 -18 43 5 11 21 9 22
-38 13z"/>
<path d="M13680 9998 c0 -9 5 -20 11 -23 17 -11 18 -2 3 19 -12 17 -14 17 -14
4z"/>
<path d="M13734 10001 c3 -5 16 -11 28 -14 22 -6 22 -5 4 8 -22 17 -40 20 -32
6z"/>
<path d="M13508 9954 c-6 -5 50 -104 59 -104 3 0 -45 99 -52 108 -1 1 -4 -1
-7 -4z"/>
<path d="M13656 9915 c4 -8 8 -15 10 -15 2 0 4 7 4 15 0 8 -4 15 -10 15 -5 0
-7 -7 -4 -15z"/>
<path d="M14285 9900 c-3 -5 -1 -10 4 -10 6 0 11 5 11 10 0 6 -2 10 -4 10 -3
0 -8 -4 -11 -10z"/>
<path d="M14380 9890 c0 -5 5 -10 10 -10 6 0 10 5 10 10 0 6 -4 10 -10 10 -5
0 -10 -4 -10 -10z"/>
<path d="M17270 9883 c0 -9 -12 -11 -36 -8 -36 4 -36 4 -19 -16 12 -12 22 -16
28 -10 5 5 15 7 22 5 17 -7 26 9 14 26 -6 10 -9 11 -9 3z"/>
<path d="M10507 9827 l-17 -32 20 24 c17 20 26 41 18 41 -2 0 -11 -15 -21 -33z"/>
<path d="M17115 9840 c3 -5 8 -10 11 -10 2 0 4 5 4 10 0 6 -5 10 -11 10 -5 0
-7 -4 -4 -10z"/>
<path d="M10475 9779 c-4 -6 -5 -12 -2 -15 2 -3 7 2 10 11 7 17 1 20 -8 4z"/>
<path d="M14207 9751 c-16 -6 -16 -9 -3 -26 13 -18 15 -19 21 -3 10 25 3 36
-18 29z"/>
<path d="M13910 9732 c0 -12 22 -32 35 -32 6 0 20 7 31 16 20 16 13 16 -31 -2
-10 -4 -15 0 -15 10 0 9 -4 16 -10 16 -5 0 -10 -4 -10 -8z"/>
<path d="M14054 9673 c3 -10 8 -30 12 -45 5 -24 24 -40 24 -22 0 20 -25 84
-32 84 -5 0 -7 -8 -4 -17z"/>
<path d="M14329 9633 c-29 -32 -56 -57 -61 -55 -4 1 -8 -5 -8 -15 0 -9 -3 -14
-6 -10 -4 3 -39 -20 -78 -52 -87 -71 -101 -87 -86 -96 6 -4 9 -1 8 7 -2 7 3
12 10 10 23 -4 292 237 292 262 0 17 -24 0 -71 -51z"/>
<path d="M14070 9571 c0 -6 4 -13 10 -16 6 -3 7 1 4 9 -7 18 -14 21 -14 7z"/>
<path d="M13870 9564 c0 -9 89 -95 136 -130 50 -39 53 -27 4 16 -99 89 -140
121 -140 114z"/>
<path d="M14435 9479 c-4 -6 -5 -12 -2 -15 2 -3 7 2 10 11 7 17 1 20 -8 4z"/>
<path d="M14344 9413 c-32 -38 -67 -78 -78 -90 -11 -13 -15 -23 -10 -23 5 1
29 26 54 56 25 31 60 71 78 90 18 19 29 34 23 34 -5 0 -35 -30 -67 -67z"/>
<path d="M13917 9439 c7 -7 15 -10 18 -7 3 3 -2 9 -12 12 -14 6 -15 5 -6 -5z"/>
<path d="M14395 9433 c-37 -43 -65 -82 -65 -92 0 -6 -5 -10 -11 -8 -6 1 -13
-6 -14 -16 -2 -10 0 -17 5 -15 10 4 83 97 99 126 14 26 7 29 -14 5z"/>
<path d="M13979 9390 c24 -23 32 -37 25 -46 -215 -312 -330 -534 -428 -828
-93 -278 -125 -458 -128 -708 -2 -235 17 -393 66 -563 21 -71 37 -130 40 -145
1 -3 4 -9 8 -15 3 -5 11 -30 18 -55 12 -48 54 -120 77 -133 7 -5 11 -12 8 -18
-4 -5 -2 -9 4 -9 6 0 17 -15 26 -32 8 -18 27 -46 41 -63 14 -16 32 -43 39 -60
16 -35 43 -70 49 -64 3 2 -14 31 -36 64 -59 88 -171 320 -216 448 -43 121 -64
233 -83 427 -46 492 116 1072 439 1570 41 63 87 131 103 151 16 20 29 39 29
42 0 2 -15 10 -32 18 -18 7 -35 15 -38 18 -3 3 -14 12 -25 20 -11 7 -5 -1 14
-19z m-432 -1022 c-3 -8 -6 -5 -6 6 -1 11 2 17 5 13 3 -3 4 -12 1 -19z m-10
-40 c-3 -8 -6 -5 -6 6 -1 11 2 17 5 13 3 -3 4 -12 1 -19z"/>
<path d="M14267 9239 c-20 -24 -37 -48 -37 -53 0 -4 29 -56 64 -115 129 -215
226 -437 295 -677 109 -378 119 -772 30 -1123 -34 -132 -63 -209 -131 -344
-174 -350 -390 -572 -728 -750 -174 -92 -516 -173 -749 -178 -37 -1 -57 -5
-50 -10 11 -6 10 -9 -2 -14 -9 -3 -20 -5 -25 -4 -5 1 -20 1 -34 -1 -23 -1 -23
-2 -5 -9 11 -5 23 -7 28 -4 4 2 44 6 90 8 230 12 405 41 549 92 167 58 416
185 411 209 -1 5 8 11 20 11 12 1 23 7 25 13 2 5 8 10 14 10 15 0 61 40 166
143 87 86 193 223 254 326 68 118 120 220 134 266 30 97 36 120 32 126 -2 3 3
13 10 22 8 9 11 21 7 27 -4 6 1 22 10 36 9 14 14 28 12 31 -3 3 3 24 13 48 34
79 45 188 44 430 0 127 -6 266 -13 310 -16 108 -83 375 -94 375 -4 0 -5 -6 -1
-12 5 -9 4 -10 -3 -3 -15 14 -27 68 -13 60 5 -3 10 -1 10 4 0 6 -4 11 -8 11
-4 0 -8 10 -9 21 -6 75 -140 376 -275 617 -30 53 -32 97 -6 113 6 4 9 12 6 19
-2 7 -20 -7 -41 -31z"/>
<path d="M14150 9104 c0 -3 16 -22 35 -41 19 -19 35 -38 35 -42 0 -3 10 -12
22 -20 l21 -13 -21 33 c-12 19 -30 46 -39 61 -16 24 -53 39 -53 22z"/>
<path d="M14071 9049 c-12 -16 -19 -35 -15 -41 4 -7 3 -8 -4 -4 -15 9 -44 -48
-36 -71 5 -14 4 -15 -4 -4 -8 11 -12 10 -21 -6 -5 -11 -8 -23 -5 -26 3 -2 -6
-17 -20 -32 -26 -28 -26 -45 -2 -45 12 0 30 29 93 148 9 17 19 32 22 32 3 0
28 -38 56 -85 27 -47 51 -81 53 -76 2 6 -2 20 -9 33 -11 21 -11 22 4 9 21 -17
21 -13 2 32 -18 43 -40 62 -25 21 11 -27 6 -44 -7 -30 -4 4 -7 26 -6 49 0 23
-4 45 -9 48 -7 4 -6 14 1 27 14 26 14 42 1 42 -5 0 -10 -7 -10 -15 0 -8 -5
-15 -11 -15 -6 0 -9 6 -6 14 11 28 -21 24 -42 -5z"/>
<path d="M14196 8805 c4 -8 10 -12 15 -9 11 6 2 24 -11 24 -5 0 -7 -7 -4 -15z"/>
<path d="M14280 8639 c0 -13 4 -18 12 -13 8 5 9 2 5 -9 -3 -10 -2 -17 4 -17 5
0 9 -6 7 -12 -4 -19 24 -98 35 -98 5 0 6 -8 2 -17 -5 -14 -4 -15 6 -6 10 10 7
25 -10 70 -12 32 -27 73 -33 91 -13 36 -28 43 -28 11z"/>
<path d="M10501 8565 c-2 -43 35 -213 81 -375 91 -321 352 -828 449 -874 13
-6 18 -16 14 -30 -3 -12 -2 -15 1 -8 5 10 9 10 21 0 9 -7 -14 32 -51 87 -231
349 -393 714 -467 1053 -23 103 -47 179 -48 147z"/>
<path d="M13829 8568 c-1 -7 -1 -17 0 -22 1 -4 -3 -14 -9 -20 -5 -7 -7 -16 -3
-19 3 -4 2 -7 -3 -7 -5 0 -9 -11 -9 -25 0 -30 1 -31 15 -5 15 28 29 110 19
110 -5 0 -10 -6 -10 -12z"/>
<path d="M10602 8502 c-3 -59 9 -111 64 -287 51 -164 127 -339 149 -343 8 -2
15 -8 15 -13 0 -6 -4 -7 -10 -4 -6 3 -7 -1 -4 -9 3 -9 12 -16 20 -16 8 0 14
-5 14 -12 0 -6 2 -9 5 -6 10 9 -28 78 -38 71 -6 -4 -7 -1 -2 6 11 18 -26 96
-38 79 -6 -9 -7 -6 -4 10 3 13 -5 52 -18 87 -50 132 -135 420 -135 457 0 9 -4
19 -8 22 -4 2 -9 -17 -10 -42z m198 -580 c0 -15 -2 -15 -10 -2 -13 20 -13 33
0 25 6 -3 10 -14 10 -23z"/>
<path d="M17636 8494 c-4 -14 -5 -28 -3 -31 3 -2 8 8 11 23 4 14 5 28 3 31 -3
2 -8 -8 -11 -23z"/>
<path d="M17613 8402 c-60 -212 -103 -340 -135 -408 -5 -11 -11 -31 -12 -45
-2 -13 -15 -42 -29 -63 -15 -21 -27 -48 -27 -58 0 -28 -57 -148 -70 -148 -6 0
-9 -4 -6 -9 4 -5 3 -11 -2 -13 -4 -1 -40 -56 -80 -120 -110 -178 -185 -283
-276 -393 -253 -303 -565 -556 -888 -721 -150 -76 -261 -119 -418 -164 -63
-18 -117 -35 -120 -39 -22 -27 -342 -52 -366 -28 -4 4 -16 0 -26 -9 -16 -16
-18 -15 -27 7 -5 13 -7 27 -5 31 3 4 37 6 77 6 39 -1 79 2 87 5 8 4 42 13 75
21 l60 15 -65 -7 c-108 -12 -400 -7 -480 7 -84 15 -261 76 -331 114 l-47 25
-48 -40 c-27 -22 -59 -48 -72 -59 -12 -10 -26 -19 -31 -19 -8 0 -25 -30 -19
-35 20 -17 68 -33 73 -25 4 6 15 8 26 5 11 -4 19 -2 19 5 0 6 5 8 13 4 9 -6 9
-4 -1 8 -10 13 -10 17 3 22 9 3 13 2 10 -3 -10 -18 38 -24 50 -7 13 17 40 23
30 6 -3 -5 7 -8 25 -5 16 2 30 -1 30 -7 0 -5 7 -8 15 -5 8 4 17 2 20 -3 8 -13
120 -47 235 -72 136 -29 368 -35 530 -14 374 50 747 206 1082 456 331 246 652
624 854 1005 111 211 237 546 269 718 17 93 16 123 -2 59z m-493 -1105 c0 -2
-18 -28 -40 -57 -50 -67 -53 -58 -4 10 32 44 44 57 44 47z m-2704 -996 c-4 -5
0 -11 6 -14 7 -2 9 -8 5 -13 -9 -10 -28 16 -21 28 3 4 7 8 10 8 3 0 3 -4 0 -9z
m479 -45 c55 -9 116 -20 135 -23 19 -3 43 -5 54 -4 17 2 35 -13 36 -30 0 -9
-153 -5 -167 4 -7 4 -21 3 -31 -2 -11 -6 -21 -8 -24 -6 -2 3 -22 7 -44 11 -21
3 -48 13 -58 22 -11 10 -16 12 -13 5 5 -7 0 -9 -14 -6 -11 3 -18 11 -15 19 3
8 0 11 -8 8 -7 -3 -13 2 -13 11 0 18 -6 18 162 -9z m-185 4 c0 -5 -5 -10 -11
-10 -5 0 -7 5 -4 10 3 6 8 10 11 10 2 0 4 -4 4 -10z"/>
<path d="M13153 8255 c0 -33 2 -45 4 -27 2 18 2 45 0 60 -2 15 -4 0 -4 -33z"/>
<path d="M13720 8224 c0 -8 5 -12 10 -9 6 4 8 11 5 16 -9 14 -15 11 -15 -7z"/>
<path d="M13712 8175 c0 -16 2 -22 5 -12 2 9 2 23 0 30 -3 6 -5 -1 -5 -18z"/>
<path d="M13144 8085 c0 -60 1 -84 3 -52 2 32 2 81 0 110 -2 29 -3 3 -3 -58z"/>
<path d="M13697 8057 c-3 -8 1 -14 8 -14 7 0 11 6 8 14 -3 7 -6 13 -8 13 -2 0
-5 -6 -8 -13z"/>
<path d="M13712 7995 c0 -16 2 -22 5 -12 2 9 2 23 0 30 -3 6 -5 -1 -5 -18z"/>
<path d="M13151 7923 c-4 -162 71 -448 160 -610 35 -64 130 -195 137 -189 2 3
-23 44 -56 93 -119 175 -207 432 -231 678 -7 68 -8 72 -10 28z"/>
<path d="M13701 7905 c-7 -27 -5 -83 2 -76 5 5 7 26 4 47 -2 22 -5 35 -6 29z"/>
<path d="M10876 7767 c3 -10 9 -15 12 -12 3 3 0 11 -7 18 -10 9 -11 8 -5 -6z"/>
<path d="M14480 7749 c0 -11 -4 -18 -8 -15 -5 3 -8 -14 -7 -37 1 -23 -2 -46
-6 -52 -3 -5 -9 -48 -13 -95 -3 -47 -8 -100 -12 -117 -5 -26 -3 -33 9 -33 11
0 17 20 25 78 13 93 25 292 17 292 -3 0 -5 -9 -5 -21z"/>
<path d="M13702 7655 c-1 -33 3 -100 10 -150 6 -49 11 -105 11 -122 0 -18 4
-33 8 -33 5 0 6 -6 3 -14 -6 -16 38 -174 63 -224 10 -20 25 -37 34 -38 15 -2
15 1 1 37 -8 21 -19 36 -25 32 -6 -3 -7 -1 -3 5 3 6 -9 62 -28 124 -41 137
-56 217 -66 346 -6 77 -7 85 -8 37z m128 -565 c0 -5 -2 -10 -4 -10 -3 0 -8 5
-11 10 -3 6 -1 10 4 10 6 0 11 -4 11 -10z"/>
<path d="M14881 7397 c-49 -116 -99 -213 -136 -261 -51 -68 -77 -106 -71 -106
14 0 110 142 155 229 49 96 96 209 89 216 -2 2 -19 -33 -37 -78z"/>
<path d="M14441 7374 c0 -11 3 -14 6 -6 3 7 2 16 -1 19 -3 4 -6 -2 -5 -13z"/>
<path d="M14431 7314 c0 -11 3 -14 6 -6 3 7 2 16 -1 19 -3 4 -6 -2 -5 -13z"/>
<path d="M14400 7305 c0 -8 2 -15 4 -15 2 0 6 7 10 15 3 8 1 15 -4 15 -6 0
-10 -7 -10 -15z"/>
<path d="M14408 7283 c-10 -2 -18 -8 -18 -13 0 -5 -3 -17 -6 -27 -3 -11 1 -8
11 7 12 18 14 19 10 5 -4 -11 -10 -28 -13 -38 -3 -12 -7 -15 -12 -7 -4 6 -14
-9 -25 -37 -49 -132 -148 -297 -224 -373 -27 -27 -47 -50 -46 -52 8 -8 -202
-111 -225 -110 -17 0 -27 -5 -27 -14 0 -8 6 -13 14 -10 7 3 13 -1 13 -9 0 -8
-7 -15 -16 -15 -14 0 -14 -3 -4 -15 10 -13 9 -19 -6 -36 -10 -11 -26 -18 -36
-16 -10 3 -16 1 -12 -4 3 -5 0 -9 -6 -9 -7 0 -9 -8 -5 -22 6 -17 4 -20 -11
-14 -10 4 -15 4 -12 0 23 -22 -121 -98 -272 -143 -163 -48 -280 -64 -505 -66
-192 -3 -204 -2 -312 26 -62 16 -163 47 -225 69 -62 22 -117 38 -123 36 -5 -2
-4 -5 3 -5 7 -1 10 -5 7 -11 -4 -6 1 -7 11 -3 11 4 15 2 11 -4 -4 -6 1 -13 11
-16 9 -3 50 -17 91 -31 94 -33 202 -61 316 -81 108 -19 388 -22 490 -5 201 33
394 103 555 202 211 130 450 408 552 643 21 48 72 209 65 204 -1 -1 -10 -3
-19 -6z m-78 -223 c-6 -11 -13 -20 -16 -20 -2 0 0 9 6 20 6 11 13 20 16 20 2
0 0 -9 -6 -20z m-64 -128 c-13 -26 -34 -58 -45 -72 l-22 -25 17 35 c19 39 65
110 70 110 3 0 -7 -21 -20 -48z m-76 -110 c0 -5 -27 -37 -60 -72 -76 -80 -79
-65 -4 18 56 62 64 69 64 54z m-130 -126 c0 -2 -7 -7 -16 -10 -8 -3 -12 -2 -9
4 6 10 25 14 25 6z m-150 -76 c0 -5 -7 -10 -16 -10 -8 0 -12 5 -9 10 3 6 10
10 16 10 5 0 9 -4 9 -10z"/>
<path d="M11182 7114 c-7 -8 -8 -14 -3 -14 10 0 25 19 20 25 -2 1 -10 -3 -17
-11z"/>
<path d="M13894 6975 c8 -16 25 -41 37 -55 l21 -25 -17 31 c-10 17 -26 41 -37
55 l-19 24 15 -30z"/>
<path d="M14865 6900 c-9 -16 -13 -30 -11 -30 3 0 12 14 21 30 9 17 13 30 11
30 -3 0 -12 -13 -21 -30z"/>
<path d="M11590 6726 c0 -2 8 -10 18 -17 15 -13 16 -12 3 4 -13 16 -21 21 -21
13z"/>
<path d="M11620 6675 c19 -23 168 -125 182 -125 9 0 22 -10 30 -22 8 -12 17
-17 20 -12 7 10 -178 151 -193 147 -5 -2 -8 2 -6 9 1 7 -8 13 -21 14 -16 1
-19 -2 -12 -11z"/>
<path d="M12950 6570 c8 -5 20 -10 25 -10 6 0 3 5 -5 10 -8 5 -19 10 -25 10
-5 0 -3 -5 5 -10z"/>
<path d="M15238 6547 c-82 -63 -87 -109 -18 -176 41 -40 108 -66 151 -59 23 4
22 5 -6 12 -37 9 -114 46 -113 55 2 18 -3 24 -11 12 -8 -12 -12 -10 -22 12 -7
15 -16 27 -21 27 -4 0 -8 13 -8 29 0 23 12 40 52 75 61 53 59 61 -4 13z"/>
<path d="M12928 6523 c47 -46 57 -72 37 -99 -8 -10 -15 -14 -15 -7 0 6 5 15
10 18 6 3 10 12 10 18 0 7 -9 1 -19 -12 -10 -14 -16 -31 -13 -40 3 -9 1 -12
-7 -7 -6 4 -19 2 -28 -5 -9 -8 -23 -14 -31 -14 -22 0 -27 -25 -5 -25 15 0 16
-2 3 -10 -10 -6 -16 -6 -18 0 -5 13 -42 13 -42 -1 0 -5 5 -7 10 -4 6 3 10 1
10 -5 0 -7 -8 -9 -20 -5 -12 4 -20 2 -20 -5 0 -7 -6 -10 -13 -7 -7 3 -22 -2
-32 -10 -18 -12 -14 -13 38 -8 32 3 75 14 96 24 48 25 121 104 121 132 0 22
-80 109 -101 109 -5 0 8 -17 29 -37z"/>
<path d="M12931 6484 c0 -11 3 -14 6 -6 3 7 2 16 -1 19 -3 4 -6 -2 -5 -13z"/>
<path d="M9930 6380 c6 -11 13 -20 16 -20 2 0 0 9 -6 20 -6 11 -13 20 -16 20
-2 0 0 -9 6 -20z"/>
<path d="M9950 6341 c0 -6 4 -13 10 -16 6 -3 7 1 4 9 -7 18 -14 21 -14 7z"/>
<path d="M9970 6308 c0 -16 32 -78 40 -78 14 0 13 5 -15 46 -14 20 -25 34 -25
32z"/>
<path d="M18159 6263 c-13 -17 -13 -17 6 -3 11 8 22 16 24 17 2 2 0 3 -6 3 -6
0 -17 -8 -24 -17z"/>
<path d="M9939 6230 l-24 -20 28 11 c15 7 27 16 27 21 0 12 -5 10 -31 -12z"/>
<path d="M14266 6231 l-29 -19 34 -15 c19 -8 66 -29 104 -47 39 -18 75 -35 80
-37 9 -4 -12 14 -60 51 -11 9 18 -1 65 -20 47 -20 97 -39 111 -44 14 -4 36
-13 48 -19 11 -7 21 -8 21 -3 0 4 -36 23 -80 41 -44 18 -121 55 -170 82 -49
27 -90 49 -92 49 -2 0 -16 -9 -32 -19z"/>
<path d="M18155 6230 c-3 -6 1 -7 9 -4 18 7 21 14 7 14 -6 0 -13 -4 -16 -10z"/>
<path d="M18200 6235 c0 -13 128 -64 175 -70 35 -5 46 -3 35 4 -8 5 -17 8 -21
6 -7 -5 -134 36 -168 54 -11 7 -21 9 -21 6z"/>
<path d="M9880 6200 c-8 -5 -10 -10 -5 -10 6 0 17 5 25 10 8 5 11 10 5 10 -5
0 -17 -5 -25 -10z"/>
<path d="M9665 6183 c35 -20 148 -24 180 -5 17 9 14 10 -20 6 -22 -3 -48 -7
-57 -9 -17 -3 -51 3 -108 19 -22 6 -22 5 5 -11z"/>
<path d="M14139 6151 c10 -7 10 -10 1 -16 -7 -4 -15 -3 -19 3 -4 7 -16 5 -36
-4 -16 -8 -23 -12 -15 -11 8 2 51 -11 95 -30 44 -18 81 -33 82 -33 1 0 0 7 -3
15 -7 18 9 19 37 4 11 -6 25 -8 32 -6 15 5 -78 47 -104 47 -11 0 -19 4 -19 8
0 5 -11 14 -25 20 -30 14 -46 16 -26 3z"/>
<path d="M12238 6133 c7 -3 16 -2 19 1 4 3 -2 6 -13 5 -11 0 -14 -3 -6 -6z"/>
<path d="M12298 6113 c7 -3 16 -2 19 1 4 3 -2 6 -13 5 -11 0 -14 -3 -6 -6z"/>
<path d="M12230 6097 c35 -20 74 -32 66 -19 -3 5 -16 12 -28 15 -13 2 -32 8
-43 11 -12 5 -10 2 5 -7z"/>
<path d="M15925 6100 c-3 -6 1 -7 9 -4 18 7 21 14 7 14 -6 0 -13 -4 -16 -10z"/>
<path d="M14500 6096 c0 -7 162 -68 167 -63 4 4 -46 27 -117 54 -37 13 -50 16
-50 9z"/>
<path d="M15875 6080 c-3 -6 1 -7 9 -4 18 7 21 14 7 14 -6 0 -13 -4 -16 -10z"/>
<path d="M14660 6070 c8 -5 22 -9 30 -9 10 0 8 3 -5 9 -27 12 -43 12 -25 0z"/>
<path d="M13880 6054 c-17 -9 -20 -14 -9 -14 9 0 22 7 29 15 15 18 13 18 -20
-1z"/>
<path d="M13928 6063 c7 -3 16 -2 19 1 4 3 -2 6 -13 5 -11 0 -14 -3 -6 -6z"/>
<path d="M14273 6060 c2 -8 12 -16 23 -17 13 -2 15 -1 4 4 -8 3 -19 11 -23 17
-6 7 -7 6 -4 -4z"/>
<path d="M14718 6053 c7 -3 16 -2 19 1 4 3 -2 6 -13 5 -11 0 -14 -3 -6 -6z"/>
<path d="M12405 6031 c28 -10 54 -16 59 -13 5 3 -11 11 -35 18 -64 20 -82 15
-24 -5z"/>
<path d="M14751 6046 c7 -7 186 -46 217 -46 13 0 22 -6 22 -15 0 -12 14 -15
70 -15 39 0 70 4 70 10 0 5 33 11 73 13 64 3 61 3 -28 5 -87 2 -284 26 -395
48 -19 4 -32 4 -29 0z m286 -62 c-3 -3 -12 -4 -19 -1 -8 3 -5 6 6 6 11 1 17
-2 13 -5z"/>
<path d="M14798 6003 c7 -3 16 -2 19 1 4 3 -2 6 -13 5 -11 0 -14 -3 -6 -6z"/>
<path d="M14848 5993 c6 -2 18 -2 25 0 6 3 1 5 -13 5 -14 0 -19 -2 -12 -5z"/>
<path d="M15293 5993 c9 -2 23 -2 30 0 6 3 -1 5 -18 5 -16 0 -22 -2 -12 -5z"/>
<path d="M14908 5983 c6 -2 18 -2 25 0 6 3 1 5 -13 5 -14 0 -19 -2 -12 -5z"/>
<path d="M13554 5963 c7 -13 -15 -18 -56 -14 -10 1 -18 -3 -18 -9 0 -8 13 -10
43 -5 51 9 55 12 37 28 -10 9 -11 9 -6 0z"/>
<path d="M14780 5950 c-12 -7 -10 -9 8 -7 12 0 22 5 22 9 0 11 -12 10 -30 -2z"/>
<path d="M14831 5946 c12 -10 59 -15 59 -6 0 5 -14 10 -32 10 -17 0 -29 -2
-27 -4z"/>
<path d="M15400 5940 l-25 -8 28 -1 c15 -1 27 4 27 9 0 6 -1 10 -2 9 -2 -1
-14 -5 -28 -9z"/>
<path d="M15448 5943 c7 -3 16 -2 19 1 4 3 -2 6 -13 5 -11 0 -14 -3 -6 -6z"/>
<path d="M13420 5929 c0 -5 10 -9 22 -9 12 0 18 3 14 7 -10 11 -36 12 -36 2z"/>
<path d="M14911 5936 c7 -8 118 -10 126 -3 3 4 -24 7 -62 7 -38 0 -66 -2 -64
-4z"/>
<path d="M15057 5924 c5 -14 -7 -15 -110 -12 -66 2 -112 -1 -107 -6 9 -9 445
-1 498 10 37 7 44 25 7 18 -64 -11 -97 -15 -185 -19 -52 -3 -89 -2 -82 1 15 7
6 24 -13 24 -9 0 -12 -6 -8 -16z"/>
<path d="M13336 5920 c-21 -4 -106 -8 -190 -9 -83 -1 -153 -5 -156 -8 -11 -12
400 3 412 15 14 14 -3 14 -66 2z"/>
<path d="M14788 5913 c7 -3 16 -2 19 1 4 3 -2 6 -13 5 -11 0 -14 -3 -6 -6z"/>
<path d="M17314 5264 l-59 -56 63 53 c57 48 68 59 59 59 -2 0 -30 -25 -63 -56z"/>
<path d="M17353 5260 c-32 -39 -29 -48 3 -10 15 17 25 32 23 34 -2 2 -14 -9
-26 -24z"/>
<path d="M16921 5194 c0 -11 3 -14 6 -6 3 7 2 16 -1 19 -3 4 -6 -2 -5 -13z"/>
<path d="M17279 5173 c-13 -16 -12 -17 4 -4 16 13 21 21 13 21 -2 0 -10 -8
-17 -17z"/>
<path d="M16892 5093 c-26 -86 -116 -178 -231 -236 -31 -15 -45 -25 -31 -21
101 27 204 113 251 209 17 35 29 69 27 76 -2 6 -9 -6 -16 -28z"/>
<path d="M17107 5098 c-10 -17 -15 -33 -12 -36 3 -3 5 -1 5 4 0 6 9 20 20 32
11 11 16 23 12 26 -4 2 -15 -9 -25 -26z"/>
<path d="M17093 4985 c-37 -36 -63 -65 -58 -65 6 0 40 29 75 65 35 36 61 65
58 65 -4 0 -38 -29 -75 -65z"/>
<path d="M16970 4923 c-65 -66 -68 -70 -22 -33 44 36 111 110 100 110 -2 0
-37 -34 -78 -77z"/>
<path d="M16940 4837 c-82 -78 -61 -64 32 21 31 29 54 52 50 52 -4 -1 -41 -33
-82 -73z"/>
<path d="M16839 4803 c-13 -16 -12 -17 4 -4 9 7 17 15 17 17 0 8 -8 3 -21 -13z"/>
<path d="M17192 4678 c20 -18 51 -41 70 -51 32 -17 32 -17 8 0 -13 10 -45 33
-70 51 l-45 33 37 -33z"/>
<path d="M10975 4633 c-185 -76 -358 -287 -527 -642 -66 -141 -72 -178 -7 -47
43 85 62 111 35 44 -13 -31 -13 -38 -1 -54 13 -18 14 -17 9 9 -4 26 -3 27 16
17 23 -12 25 -8 8 23 -10 20 -10 21 5 8 10 -7 17 -26 17 -41 0 -26 2 -27 25
-17 14 7 25 16 25 20 0 5 -4 5 -10 2 -13 -8 -13 -4 6 41 9 22 19 33 21 26 3
-7 -1 -19 -7 -27 -7 -8 -9 -15 -4 -15 9 0 117 211 111 217 -2 2 -14 -17 -27
-42 -13 -26 -27 -48 -32 -51 -11 -7 -10 3 2 27 16 28 3 23 -16 -7 -14 -20 -15
-27 -5 -34 11 -6 10 -12 -1 -33 -11 -22 -15 -24 -31 -12 -12 8 -14 15 -8 20 6
3 11 1 11 -5 0 -6 4 -9 9 -6 13 8 1 47 -15 53 -8 3 -14 14 -14 25 0 17 -2 18
-15 8 -13 -11 -14 -10 -8 6 3 10 16 35 26 54 11 19 27 47 34 62 8 15 19 30 24
33 5 4 18 24 29 46 18 35 179 209 194 209 3 0 3 -7 0 -15 -4 -8 -1 -15 6 -15
6 0 8 -5 4 -11 -4 -8 -9 -7 -15 2 -6 10 -17 4 -45 -24 -21 -20 -32 -37 -26
-37 6 0 20 10 32 22 18 20 20 20 20 3 0 -17 2 -17 21 4 13 14 27 20 40 16 18
-6 28 9 12 18 -5 2 -3 3 2 1 17 -3 52 27 38 33 -17 6 -16 20 1 26 10 4 13 1 9
-9 -8 -21 2 -18 49 16 22 17 37 30 32 30 -5 0 -18 -7 -28 -15 -30 -23 -41 -18
-15 6 21 18 22 20 4 14 -14 -4 -17 -3 -10 4 6 6 28 15 50 20 36 8 37 9 10 9
-16 1 -48 -6 -70 -15z m-35 -43 c0 -5 -5 -10 -11 -10 -5 0 -7 5 -4 10 3 6 8
10 11 10 2 0 4 -4 4 -10z m-30 -20 c0 -5 -5 -10 -11 -10 -5 0 -7 5 -4 10 3 6
8 10 11 10 2 0 4 -4 4 -10z m-340 -490 c0 -5 -4 -10 -10 -10 -5 0 -10 5 -10
10 0 6 5 10 10 10 6 0 10 -4 10 -10z"/>
<path d="M16318 4593 c7 -3 16 -2 19 1 4 3 -2 6 -13 5 -11 0 -14 -3 -6 -6z"/>
<path d="M16197 4554 c-45 -24 -207 -174 -207 -193 0 -5 35 26 78 68 48 47 99
87 134 104 58 28 81 47 56 47 -7 -1 -35 -12 -61 -26z"/>
<path d="M15591 4534 c-47 -21 -36 -24 33 -10 41 9 54 15 42 19 -24 9 -35 8
-75 -9z"/>
<path d="M16220 4525 c-16 -19 0 -19 26 0 16 12 16 14 3 15 -9 0 -22 -7 -29
-15z"/>
<path d="M16239 4502 c-57 -37 -143 -115 -171 -155 -12 -18 11 -1 50 37 39 38
94 84 122 102 59 37 67 44 54 44 -6 0 -30 -13 -55 -28z"/>
<path d="M15632 4503 c-24 -8 -42 -17 -40 -19 7 -6 88 19 88 27 0 5 -1 9 -2 8
-2 0 -22 -7 -46 -16z"/>
<path d="M16158 4490 c-17 -17 -28 -33 -25 -36 3 -4 13 0 21 9 8 8 12 17 9 21
-4 3 1 6 9 6 9 0 18 7 22 15 8 22 -1 18 -36 -15z"/>
<path d="M14441 4470 c-46 -22 -82 -42 -80 -45 3 -2 45 16 94 40 50 24 85 44
79 44 -5 1 -48 -17 -93 -39z"/>
<path d="M10851 4452 l-24 -37 31 30 c31 29 39 45 25 45 -5 0 -19 -17 -32 -38z"/>
<path d="M11202 4470 c0 -14 2 -19 5 -12 2 6 2 18 0 25 -3 6 -5 1 -5 -13z"/>
<path d="M11750 4486 c0 -2 7 -7 16 -10 8 -3 12 -2 9 4 -6 10 -25 14 -25 6z"/>
<path d="M14650 4480 c-18 -12 -2 -12 25 0 13 6 15 9 5 9 -8 0 -22 -4 -30 -9z"/>
<path d="M18471 4465 c-154 -72 -348 -371 -524 -806 -78 -192 -116 -274 -149
-321 -11 -16 -16 -33 -13 -38 4 -6 2 -9 -2 -8 -5 2 -33 -25 -62 -60 -64 -76
-132 -128 -188 -144 -27 -8 -38 -15 -30 -20 8 -5 7 -8 -5 -8 -10 0 -18 6 -18
13 0 8 -4 7 -10 -3 -6 -10 -10 -11 -10 -2 0 6 -8 12 -18 12 -24 0 -51 29 -62
66 -6 21 -9 23 -9 9 -1 -25 35 -85 51 -85 6 0 9 -2 6 -5 -9 -9 -60 14 -53 25
4 6 -1 7 -11 3 -14 -5 -16 -3 -11 11 4 10 3 15 -3 11 -17 -10 -50 29 -57 67
-3 21 -9 35 -14 33 -19 -13 30 -117 67 -141 51 -34 184 -40 184 -8 0 14 15 18
55 16 11 0 14 2 7 5 -8 3 -5 11 12 24 30 23 43 25 25 2 -13 -15 -12 -15 8 -4
37 19 111 100 150 162 20 33 39 59 42 59 3 0 6 -44 6 -97 0 -116 16 -156 72
-179 84 -36 214 44 307 189 25 38 36 34 36 -15 0 -55 33 -122 78 -156 31 -24
44 -27 111 -27 102 1 161 27 238 108 106 112 237 317 215 339 -8 8 -19 -3 -39
-37 -154 -260 -274 -375 -391 -375 -82 0 -115 73 -93 207 7 38 15 74 20 81 4
6 41 21 83 31 157 40 272 129 303 234 19 65 13 100 -24 128 -37 29 -146 24
-215 -11 -80 -41 -162 -139 -229 -276 -73 -148 -133 -241 -203 -314 -30 -31
-51 -59 -48 -62 3 -3 -1 -6 -8 -5 -34 1 -48 -4 -48 -18 0 -19 -56 -21 -63 -2
-4 9 -8 8 -17 -3 -9 -12 -10 -11 -5 8 3 12 2 22 -3 22 -16 0 -24 32 -11 44 9
8 10 8 6 0 -4 -7 2 -23 14 -35 18 -20 19 -21 12 -4 -21 50 -7 158 36 285 24
69 54 145 67 169 13 24 22 47 19 50 -4 3 -10 -1 -15 -9 -7 -11 -10 -12 -10 -2
0 7 -4 10 -10 7 -5 -3 -10 1 -10 9 0 9 -8 14 -20 13 -21 -1 -27 -13 -10 -19
14 -4 21 -48 8 -48 -5 0 -12 9 -15 20 -7 25 -12 25 -30 3 -11 -15 -11 -11 1
20 8 20 13 37 11 37 -2 0 9 28 25 63 17 34 30 68 30 76 0 8 6 11 16 7 12 -4
14 -1 9 14 -9 28 3 43 21 26 18 -18 18 -30 1 -23 -10 4 -13 -2 -9 -18 5 -30
32 -42 32 -15 0 11 4 20 10 20 5 0 7 7 4 15 -4 10 0 15 12 14 11 0 14 -3 7 -5
-7 -3 -10 -11 -7 -17 6 -18 -45 -119 -56 -112 -6 4 -7 12 -4 18 5 9 4 9 -5 1
-10 -9 -10 -16 1 -33 17 -28 31 -22 39 16 9 45 216 452 290 571 98 159 180
224 220 176 32 -39 -56 -239 -177 -404 -30 -41 -95 -120 -143 -175 -69 -79
-85 -103 -76 -112 26 -24 265 263 358 432 136 244 99 374 -82 290z m-178 -200
c-3 -9 -8 -14 -10 -11 -3 3 -2 9 2 15 9 16 15 13 8 -4z m-23 -448 c0 -2 -16
-19 -37 -38 -37 -35 -37 -21 1 18 18 19 36 29 36 20z m448 -79 c7 -7 12 -31
12 -54 0 -58 -65 -153 -140 -205 -50 -35 -155 -79 -186 -79 -15 0 -44 28 -44
42 0 6 8 1 19 -10 24 -29 27 -28 41 13 14 43 118 202 151 231 40 36 101 74
118 74 10 0 22 -5 29 -12z m-688 -160 c0 -16 -39 -67 -40 -52 0 16 24 64 33
64 4 0 7 -6 7 -12z m394 -13 c3 -8 1 -15 -4 -15 -6 0 -10 7 -10 15 0 8 2 15 4
15 2 0 6 -7 10 -15z m2 -73 c-4 -3 -11 0 -16 8 -15 24 -11 33 6 15 9 -9 13
-19 10 -23z m-43 3 c-3 -9 -8 -14 -10 -11 -3 3 -2 9 2 15 9 16 15 13 8 -4z
m27 -35 c0 -5 -5 -10 -11 -10 -5 0 -7 5 -4 10 3 6 8 10 11 10 2 0 4 -4 4 -10z
m-674 -238 l-29 -27 23 32 c13 18 26 30 29 28 3 -3 -8 -18 -23 -33z m161 -44
c-3 -8 -6 -5 -6 6 -1 11 2 17 5 13 3 -3 4 -12 1 -19z m-212 -18 c-16 -16 -34
-30 -39 -30 -13 0 45 59 58 59 6 1 -3 -12 -19 -29z m350 -80 c-3 -5 -12 -10
-18 -10 -7 0 -6 4 3 10 19 12 23 12 15 0z"/>
<path d="M9960 4434 c-215 -46 -360 -205 -360 -395 0 -165 136 -312 335 -363
81 -20 251 -33 241 -18 -7 11 7 16 64 25 14 3 -22 5 -80 6 -186 3 -314 44
-401 131 -65 65 -93 141 -86 236 9 125 71 218 188 287 56 33 183 66 258 69 55
1 55 1 16 8 -34 7 -32 7 15 4 69 -4 128 -23 108 -35 -10 -7 -8 -9 7 -10 11 -1
26 -1 34 0 8 2 10 -2 5 -10 -4 -8 -3 -10 5 -5 15 10 61 -20 61 -39 0 -8 5 -15
10 -15 32 0 -24 57 -87 89 -97 48 -215 61 -333 35z m-178 -110 c-12 -8 -20
-20 -16 -25 3 -5 1 -8 -4 -7 -6 2 -11 -1 -12 -7 -3 -17 -22 -35 -31 -30 -4 3
-7 -3 -6 -12 0 -10 -7 -30 -17 -45 -21 -32 -32 -37 -16 -8 7 14 7 20 0 20 -9
0 -15 -22 -11 -43 1 -4 -5 -15 -13 -22 -8 -8 -12 -24 -9 -35 3 -11 1 -20 -5
-20 -14 0 -5 76 14 115 25 53 109 135 138 135 6 0 0 -7 -12 -16z m73 -591 c33
-18 57 -33 52 -33 -18 0 -144 70 -162 91 -20 23 -20 23 15 -1 19 -14 62 -39
95 -57z"/>
<path d="M16100 4441 c0 -6 4 -12 8 -15 5 -3 9 1 9 9 0 8 -4 15 -9 15 -4 0 -8
-4 -8 -9z"/>
<path d="M11191 4424 c0 -11 3 -14 6 -6 3 7 2 16 -1 19 -3 4 -6 -2 -5 -13z"/>
<path d="M15430 4429 c0 -5 5 -7 10 -4 6 3 10 8 10 11 0 2 -4 4 -10 4 -5 0
-10 -5 -10 -11z"/>
<path d="M14329 4403 c-13 -16 -12 -17 4 -4 16 13 21 21 13 21 -2 0 -10 -8
-17 -17z"/>
<path d="M15391 4406 c-7 -8 -8 -17 -3 -20 6 -3 15 1 21 8 7 8 8 17 3 20 -6 3
-15 -1 -21 -8z"/>
<path d="M10188 4403 c7 -3 16 -2 19 1 4 3 -2 6 -13 5 -11 0 -14 -3 -6 -6z"/>
<path d="M14462 4386 c-46 -33 -53 -43 -14 -20 19 10 38 25 44 32 15 17 8 14
-30 -12z"/>
<path d="M11154 4338 c-10 -24 -29 -60 -41 -80 -27 -44 -16 -51 13 -10 22 30
59 121 52 128 -3 2 -13 -15 -24 -38z"/>
<path d="M14279 4363 c-13 -16 -12 -17 4 -4 9 7 17 15 17 17 0 8 -8 3 -21 -13z"/>
<path d="M14386 4335 c-11 -8 -15 -15 -9 -15 6 0 16 7 23 15 16 19 11 19 -14
0z"/>
<path d="M15960 4325 c-7 -9 -10 -18 -7 -21 3 -3 10 4 17 15 13 25 8 27 -10 6z"/>
<path d="M11183 4318 c-6 -7 -25 -42 -42 -78 -36 -73 -10 -48 35 33 25 46 29
72 7 45z"/>
<path d="M10745 4288 l-16 -33 20 25 c20 24 26 40 16 40 -2 0 -12 -15 -20 -32z"/>
<path d="M10715 4239 c-4 -6 -5 -12 -2 -15 2 -3 7 2 10 11 7 17 1 20 -8 4z"/>
<path d="M11017 4129 c-113 -132 -245 -236 -411 -325 -44 -24 -74 -44 -66 -44
19 0 196 99 265 148 28 19 72 56 99 81 53 51 190 210 185 216 -2 1 -34 -32
-72 -76z"/>
<path d="M10655 4179 c-4 -6 -5 -12 -2 -15 2 -3 7 2 10 11 7 17 1 20 -8 4z"/>
<path d="M10590 4143 c0 -18 5 -33 10 -33 13 0 13 30 0 50 -7 11 -10 7 -10
-17z"/>
<path d="M16816 4009 c-31 -62 -56 -115 -56 -117 0 -2 7 1 15 8 18 15 20 0 3
-20 -11 -12 -10 -12 5 0 14 10 21 10 29 2 9 -9 9 -12 -2 -12 -7 0 -11 -2 -8
-5 3 -3 17 -1 31 4 14 6 27 7 29 3 5 -11 188 -2 188 9 0 5 -36 9 -80 9 -44 0
-80 4 -80 9 0 5 16 43 35 85 44 96 44 106 1 38 -28 -43 -34 -48 -35 -30 -2 50
-6 78 -11 78 -7 0 -30 -51 -30 -66 0 -6 -6 -14 -14 -17 -10 -4 -5 15 15 60 49
110 24 83 -35 -38z m51 -19 c-1 -11 -5 -20 -9 -20 -10 0 -10 4 -2 24 8 22 13
20 11 -4z m16 -45 c-3 -9 -8 -14 -10 -11 -3 3 -2 9 2 15 9 16 15 13 8 -4z"/>
<path d="M11039 4093 c-13 -16 -12 -17 4 -4 16 13 21 21 13 21 -2 0 -10 -8
-17 -17z"/>
<path d="M10999 4053 c-13 -16 -12 -17 4 -4 16 13 21 21 13 21 -2 0 -10 -8
-17 -17z"/>
<path d="M11865 4049 c-27 -13 -65 -70 -65 -97 0 -29 34 -62 63 -62 12 0 33 7
45 16 26 18 48 54 32 54 -5 0 -10 -6 -10 -13 0 -20 -53 -47 -70 -36 -12 8 -11
9 4 7 10 -2 21 2 23 9 3 7 -3 9 -16 6 -12 -3 -21 -1 -21 6 0 6 7 11 15 11 8 0
15 8 15 18 1 15 2 15 15 -2 13 -18 15 -18 21 -2 4 9 13 15 20 12 7 -3 16 -1
19 4 7 11 -5 40 -16 40 -4 0 -6 -7 -3 -15 9 -22 -2 -18 -31 11 l-26 26 33 -7
c29 -7 31 -6 19 9 -15 18 -36 20 -66 5z"/>
<path d="M16913 4053 c-15 -5 -17 -23 -4 -23 5 0 11 7 15 15 3 8 4 15 3 14 -1
0 -8 -3 -14 -6z"/>
<path d="M17213 4024 l-28 -26 29 21 c34 25 74 27 82 6 4 -8 11 -15 17 -15 5
0 2 9 -8 20 -25 27 -58 25 -92 -6z"/>
<path d="M10940 3996 c-32 -32 -258 -187 -308 -212 -29 -15 -50 -29 -48 -31
16 -16 280 154 347 223 31 32 39 50 9 20z"/>
<path d="M14072 3980 c0 -14 2 -19 5 -12 2 6 2 18 0 25 -3 6 -5 1 -5 -13z"/>
<path d="M14072 3930 c0 -14 2 -19 5 -12 2 6 2 18 0 25 -3 6 -5 1 -5 -13z"/>
<path d="M17177 3929 c7 -27 48 -42 82 -30 25 9 24 9 -11 10 -26 1 -42 7 -50
21 -17 26 -28 26 -21 -1z"/>
<path d="M10551 3914 c0 -11 3 -14 6 -6 3 7 2 16 -1 19 -3 4 -6 -2 -5 -13z"/>
<path d="M12232 3870 c-20 -10 -46 -28 -58 -41 -31 -36 -56 -79 -45 -79 5 0
12 7 15 16 3 9 13 14 21 11 8 -4 12 -1 10 6 -6 14 2 26 35 52 l25 20 -22 -26
c-24 -26 -31 -53 -12 -47 6 2 10 8 9 13 -1 5 7 12 17 16 10 3 19 11 19 18 1 6
2 18 3 26 1 10 11 15 34 14 22 -1 25 -3 10 -6 -12 -2 -27 -11 -34 -19 -11 -14
-8 -15 27 -9 63 11 68 13 55 29 -18 22 -68 24 -109 6z"/>
<path d="M10376 3835 c-9 -26 -7 -32 5 -12 6 10 9 21 6 23 -2 3 -7 -2 -11 -11z"/>
<path d="M10501 3803 c-10 -26 -10 -27 4 -9 8 11 15 23 15 28 0 15 -7 8 -19
-19z"/>
<path d="M10355 3789 c-4 -6 -5 -12 -2 -15 2 -3 7 2 10 11 7 17 1 20 -8 4z"/>
<path d="M16168 3773 c6 -2 18 -2 25 0 6 3 1 5 -13 5 -14 0 -19 -2 -12 -5z"/>
<path d="M17600 3768 c-60 -17 -146 -85 -198 -157 -39 -54 -106 -183 -72 -139
12 16 27 25 35 21 8 -3 15 0 15 7 0 6 -4 8 -10 5 -5 -3 -10 0 -10 7 0 18 40
81 47 74 3 -3 1 -11 -5 -19 -12 -15 -12 -58 0 -51 4 3 8 12 8 20 0 8 5 14 11
14 6 0 9 -9 6 -20 -7 -25 -3 -25 23 2 26 28 25 23 -5 -40 -39 -82 -29 -74 28
21 63 106 135 190 185 217 21 11 30 19 20 20 -9 0 -20 -5 -24 -11 -3 -6 -15
-8 -26 -6 -11 3 -40 -3 -64 -14 -25 -10 -42 -14 -39 -9 8 13 65 43 65 34 0 -4
6 -1 13 5 8 6 31 15 53 20 35 8 36 9 9 9 -16 0 -46 -4 -65 -10z"/>
<path d="M16098 3763 c7 -3 16 -2 19 1 4 3 -2 6 -13 5 -11 0 -14 -3 -6 -6z"/>
<path d="M16230 3760 c8 -5 20 -10 25 -10 6 0 3 5 -5 10 -8 5 -19 10 -25 10
-5 0 -3 -5 5 -10z"/>
<path d="M17751 3757 c38 -29 50 -94 14 -81 -10 4 -15 0 -15 -13 0 -50 -102
-164 -195 -218 -67 -40 -39 -43 43 -5 117 55 195 150 196 241 1 47 -22 89 -48
89 -6 0 -4 -6 5 -13z"/>
<path d="M18020 3759 c0 -5 5 -7 10 -4 6 3 10 8 10 11 0 2 -4 4 -10 4 -5 0
-10 -5 -10 -11z"/>
<path d="M11005 3713 c-54 -95 -155 -314 -180 -387 -46 -136 -27 -248 45 -272
67 -22 156 18 223 100 44 54 75 102 60 93 -17 -11 -16 -1 3 28 9 14 14 25 10
25 -3 0 -16 -17 -30 -38 -13 -21 -46 -63 -74 -93 -29 -31 -50 -58 -47 -60 2
-3 -4 -5 -13 -6 -9 -1 -31 -5 -48 -8 -39 -8 -64 14 -64 56 0 43 40 155 99 283
28 60 50 110 48 112 -2 2 -20 -30 -41 -71 -22 -44 -42 -72 -49 -68 -6 3 -7 1
-3 -5 9 -15 -34 -133 -45 -126 -5 3 -7 10 -3 15 3 5 9 22 14 38 6 23 5 28 -9
27 -11 -1 -15 6 -13 19 2 17 0 16 -12 -5 -8 -14 -12 -28 -10 -31 2 -4 -3 -10
-12 -13 -18 -7 -14 10 18 84 11 25 27 61 35 80 21 48 71 148 96 189 l20 33 14
-33 c7 -18 11 -39 8 -46 -2 -8 0 -11 5 -8 6 3 10 13 10 21 0 8 4 14 9 14 5 0
13 12 18 27 5 15 12 23 15 17 4 -5 -2 -27 -13 -48 -10 -22 -17 -41 -15 -44 3
-2 15 16 27 40 12 23 30 55 40 70 11 14 19 29 19 32 0 3 -29 6 -64 6 l-64 0
-27 -47z m73 -22 c3 -8 -1 -12 -9 -9 -7 2 -15 10 -17 17 -3 8 1 12 9 9 7 -2
15 -10 17 -17z m56 -466 c-4 -8 -11 -15 -16 -15 -6 0 -5 6 2 15 7 8 14 15 16
15 2 0 1 -7 -2 -15z m-204 -149 c0 -3 -4 -8 -10 -11 -5 -3 -10 -1 -10 4 0 6 5
11 10 11 6 0 10 -2 10 -4z"/>
<path d="M11409 3753 c-24 -6 -104 -153 -185 -340 -24 -56 -6 -36 27 30 20 39
34 56 37 47 3 -8 12 -20 20 -26 12 -9 12 -15 3 -35 -12 -23 -11 -23 4 -4 10
13 13 29 9 48 -5 26 -4 27 14 16 19 -12 19 -13 -4 -73 -36 -90 -24 -90 16 1
18 43 55 122 82 175 51 104 61 134 27 80 -23 -36 -38 -37 -19 -2 10 18 9 21
-2 18 -7 -3 -14 -10 -14 -16 -3 -25 -5 -27 -14 -12 -5 8 -14 15 -20 15 -12 0
-11 12 3 43 7 16 17 22 29 19 10 -3 20 -2 23 3 6 10 -15 17 -36 13z m-69 -157
c-17 -31 -30 -64 -30 -72 0 -8 -4 -13 -9 -9 -11 6 0 36 38 102 35 62 36 47 1
-21z m40 4 c0 -5 -2 -10 -4 -10 -3 0 -8 5 -11 10 -3 6 -1 10 4 10 6 0 11 -4
11 -10z m10 -57 c0 -5 -5 -15 -10 -23 -8 -12 -10 -11 -10 8 0 12 5 22 10 22 6
0 10 -3 10 -7z"/>
<path d="M11460 3750 c0 -5 5 -10 11 -10 5 0 7 5 4 10 -3 6 -8 10 -11 10 -2 0
-4 -4 -4 -10z"/>
<path d="M11505 3750 c3 -5 8 -10 11 -10 2 0 4 5 4 10 0 6 -5 10 -11 10 -5 0
-7 -4 -4 -10z"/>
<path d="M11732 3735 c-6 -14 -10 -25 -8 -25 2 0 11 11 20 25 9 14 13 25 8 25
-5 0 -14 -11 -20 -25z"/>
<path d="M11770 3750 c0 -5 7 -10 15 -10 8 0 15 5 15 10 0 6 -7 10 -15 10 -8
0 -15 -4 -15 -10z"/>
<path d="M11810 3749 c0 -6 7 -8 16 -5 13 5 15 1 10 -21 l-6 -28 15 25 c20 35
19 40 -10 40 -14 0 -25 -5 -25 -11z"/>
<path d="M17096 3746 c-2 -6 -11 -28 -20 -48 -21 -49 -12 -49 13 -1 17 35 22
38 64 39 46 1 49 -4 28 -41 -7 -12 -11 -35 -6 -35 4 0 45 89 45 97 0 9 -119
-1 -124 -11z"/>
<path d="M18130 3703 c-19 -18 -28 -33 -21 -33 6 0 9 -5 6 -10 -4 -6 -10 -8
-14 -6 -4 3 -12 -4 -19 -15 -23 -36 3 -19 58 37 30 31 50 54 43 50 -6 -3 -13
-2 -15 2 -1 4 -19 -7 -38 -25z m40 14 c0 -2 -12 -14 -27 -28 l-28 -24 24 28
c23 25 31 32 31 24z"/>
<path d="M17153 3715 c0 -8 4 -15 9 -15 4 0 8 7 8 15 0 8 -4 15 -8 15 -5 0 -9
-7 -9 -15z"/>
<path d="M10300 3704 c-17 -9 -20 -14 -9 -14 9 0 22 7 29 15 15 18 13 18 -20
-1z"/>
<path d="M18001 3704 c0 -11 3 -14 6 -6 3 7 2 16 -1 19 -3 4 -6 -2 -5 -13z"/>
<path d="M11706 3683 c-6 -14 -5 -15 5 -6 7 7 10 15 7 18 -3 3 -9 -2 -12 -12z"/>
<path d="M11815 3679 c-4 -6 -5 -12 -2 -15 2 -3 7 2 10 11 7 17 1 20 -8 4z"/>
<path d="M15637 3683 c-10 -10 -8 -23 4 -23 5 0 8 4 5 9 -4 5 0 12 6 14 7 3 8
6 2 6 -6 1 -14 -2 -17 -6z"/>
<path d="M11013 3663 c-3 -10 -8 -21 -9 -24 -2 -4 2 -12 9 -18 11 -8 14 -4 14
24 0 39 -4 44 -14 18z"/>
<path d="M13341 3664 c0 -11 3 -14 6 -6 3 7 2 16 -1 19 -3 4 -6 -2 -5 -13z"/>
<path d="M10268 3663 c18 -4 22 -9 16 -26 -14 -46 -147 -279 -218 -382 -30
-44 -53 -81 -51 -83 6 -6 35 25 35 36 0 5 7 15 15 22 13 11 15 9 12 -8 -2 -12
-12 -31 -23 -43 -10 -12 -13 -19 -6 -15 6 4 12 2 12 -3 0 -13 -2 -13 -36 -1
-18 7 -30 7 -39 0 -8 -7 -32 0 -81 24 -104 51 -190 77 -279 83 -154 10 -268
-36 -307 -124 -41 -92 -7 -171 92 -216 69 -31 210 -28 315 7 74 25 197 89 237
124 16 13 37 1 231 -127 246 -162 457 -270 457 -233 0 6 -13 13 -30 17 -16 4
-32 10 -35 15 -6 10 41 3 66 -10 11 -6 26 -6 41 -1 19 8 20 10 4 10 -16 1 -17
3 -5 17 11 14 10 16 -6 14 -35 -4 -44 0 -39 15 4 9 -3 16 -20 21 -14 3 -26 10
-26 15 0 5 14 2 31 -7 40 -20 213 -64 248 -63 l26 2 -25 4 c-132 24 -289 85
-505 197 -160 84 -318 168 -324 173 -3 2 32 40 76 86 45 45 92 96 106 112 37
46 122 175 146 223 24 46 24 70 1 27 -7 -14 -18 -25 -24 -25 -6 0 -5 5 2 12
15 15 16 38 2 38 -5 0 -10 -7 -10 -15 0 -20 -10 -19 -27 3 -13 15 -14 13 -11
-19 3 -27 0 -35 -9 -32 -7 3 -13 11 -13 19 0 8 -5 14 -11 14 -6 0 -9 6 -6 13
2 6 8 11 13 10 5 -1 9 17 9 40 0 38 -2 42 -25 43 -23 1 -23 1 -2 -3z m82 -142
c0 -6 -4 -12 -8 -15 -5 -3 -9 1 -9 9 0 8 4 15 9 15 4 0 8 -4 8 -9z m-53 -43
c-3 -8 -6 -5 -6 6 -1 11 2 17 5 13 3 -3 4 -12 1 -19z m-24 -19 c3 -12 1 -19
-5 -17 -13 5 -20 38 -8 38 4 0 10 -9 13 -21z m24 -21 c-3 -8 -6 -5 -6 6 -1 11
2 17 5 13 3 -3 4 -12 1 -19z m-106 -31 c-10 -9 -11 -8 -5 6 3 10 9 15 12 12 3
-3 0 -11 -7 -18z m63 -41 c-6 -15 -24 -23 -24 -11 0 8 24 34 28 30 1 -1 0 -10
-4 -19z m-33 -26 c17 0 -9 -37 -76 -106 -36 -37 -68 -64 -72 -60 -4 4 -2 11 5
15 16 9 23 44 11 51 -4 3 1 20 12 37 22 35 55 35 46 1 -5 -16 -3 -17 9 -7 8 6
14 21 15 33 0 11 5 30 10 41 l9 20 -3 -20 c-1 -11 3 -20 8 -20 6 0 9 11 8 25
-1 14 1 17 4 8 2 -10 9 -18 14 -18z m-71 -24 c-14 -14 -22 -2 -14 18 5 14 9
15 15 4 4 -7 4 -17 -1 -22z m-537 -97 c97 -15 297 -96 297 -121 0 -12 -104
-81 -170 -112 -55 -26 -80 -31 -163 -34 -164 -7 -226 23 -235 116 -4 41 0 52
23 80 33 39 76 63 130 73 22 3 41 7 43 8 2 0 36 -4 75 -10z m500 -145 c9 -4
17 -10 17 -15 0 -5 6 -9 13 -9 6 0 21 -8 32 -16 20 -16 20 -16 -2 -9 -31 9
-29 -3 2 -15 18 -7 23 -14 18 -26 -4 -12 -3 -15 6 -10 7 5 9 16 5 28 -5 17 11
11 97 -34 134 -71 169 -91 169 -101 0 -7 -147 68 -198 101 -22 14 -25 14 -34
-1 -5 -10 -13 -15 -19 -12 -5 4 -9 1 -9 -4 0 -6 9 -11 20 -11 11 0 20 -4 20
-8 0 -5 11 -14 25 -20 28 -13 33 -5 9 13 -15 11 -15 12 2 12 10 0 25 -6 32
-14 8 -8 9 -13 3 -13 -6 0 -11 -7 -11 -15 0 -8 5 -15 11 -15 12 0 39 -25 39
-36 0 -4 -8 0 -17 9 -10 8 -21 16 -26 16 -7 1 -58 31 -67 41 -3 3 -22 14 -42
25 -21 11 -38 23 -38 27 0 5 -6 8 -14 8 -8 0 -28 13 -45 29 -16 15 -33 26 -37
22 -3 -3 -4 5 -2 18 2 15 -3 26 -12 28 -12 4 -12 3 -1 -5 9 -7 10 -12 2 -16
-6 -4 -11 -2 -11 3 0 6 -8 11 -17 12 -11 0 -13 3 -5 6 6 2 12 11 12 18 0 13 9
12 73 -11z m152 -114 c3 -5 -1 -10 -10 -10 -9 0 -13 5 -10 10 3 6 8 10 10 10
2 0 7 -4 10 -10z m109 -89 c-4 -3 -9 0 -11 7 -3 6 -11 12 -19 12 -9 0 -12 5
-9 11 5 7 14 4 26 -7 11 -9 16 -20 13 -23z"/>
<path d="M10120 3287 c0 -1 -4 -17 -10 -35 -7 -26 -6 -31 3 -23 12 9 22 61 12
61 -3 0 -5 -1 -5 -3z"/>
<path d="M10090 3050 c0 -5 7 -10 16 -10 8 0 12 5 9 10 -3 6 -10 10 -16 10 -5
0 -9 -4 -9 -10z"/>
<path d="M17986 3653 c-6 -14 -5 -15 5 -6 7 7 10 15 7 18 -3 3 -9 -2 -12 -12z"/>
<path d="M18020 3659 c0 -5 5 -7 10 -4 6 3 10 8 10 11 0 2 -4 4 -10 4 -5 0
-10 -5 -10 -11z"/>
<path d="M12994 3622 c-46 -56 -60 -80 -94 -166 -38 -94 -53 -187 -41 -250 9
-47 57 -133 69 -121 4 3 0 10 -7 14 -9 6 -10 14 -4 27 5 11 8 34 7 52 -1 17
-2 46 -3 63 0 16 -5 28 -10 25 -5 -4 -12 0 -14 6 -3 7 -6 1 -6 -14 -1 -16 4
-28 9 -28 6 0 10 -8 10 -17 0 -14 -5 -11 -18 10 -14 21 -18 42 -15 93 2 56 11
83 54 171 28 57 62 117 76 134 14 16 24 32 22 34 -2 2 -18 -13 -35 -33z m-86
-468 c0 -15 -4 -22 -10 -16 -5 5 -6 16 -2 25 9 23 12 21 12 -9z"/>
<path d="M18030 3624 c0 -8 5 -12 10 -9 6 3 10 10 10 16 0 5 -4 9 -10 9 -5 0
-10 -7 -10 -16z"/>
<path d="M11618 3489 c-36 -76 -63 -139 -58 -139 5 0 11 8 15 19 8 26 44 66
51 58 4 -4 1 -13 -6 -22 -7 -9 -10 -18 -6 -22 3 -3 6 0 6 8 1 8 7 3 14 -9 l13
-24 17 37 c10 20 20 34 23 32 2 -3 0 -14 -6 -25 -6 -12 -11 -31 -10 -44 0 -14
3 -17 6 -8 3 8 16 39 30 69 68 147 84 199 29 91 -19 -36 -32 -68 -30 -71 2 -3
-10 -6 -27 -6 -21 0 -29 5 -28 16 3 29 -1 36 -11 21 -5 -8 -10 -10 -10 -4 0 5
7 19 15 30 15 18 15 18 8 0 -4 -12 -3 -17 4 -13 6 4 13 -3 16 -15 5 -18 8 -19
21 -8 20 16 21 31 1 24 -11 -5 -13 -2 -9 10 5 12 0 19 -14 22 -19 6 -19 6 -1
57 10 28 18 52 16 53 -1 1 -32 -60 -69 -137z m29 -91 c-3 -8 -6 -5 -6 6 -1 11
2 17 5 13 3 -3 4 -12 1 -19z"/>
<path d="M15874 3598 l-19 -23 23 19 c21 18 27 26 19 26 -2 0 -12 -10 -23 -22z"/>
<path d="M13333 3576 c-27 -42 -88 -90 -103 -81 -6 4 -9 3 -8 -2 2 -4 -1 -9
-6 -10 -5 0 -13 -8 -18 -17 -5 -9 -14 -13 -20 -10 -6 4 -14 0 -19 -7 -4 -8
-13 -15 -19 -15 -5 -1 -14 -2 -20 -3 -5 0 -10 -5 -10 -11 0 -12 68 12 117 43
40 25 133 122 133 138 0 14 -4 11 -27 -25z"/>
<path d="M11055 3589 c-4 -6 -5 -12 -2 -15 2 -3 7 2 10 11 7 17 1 20 -8 4z"/>
<path d="M12035 3559 c-4 -6 -5 -12 -2 -15 2 -3 7 2 10 11 7 17 1 20 -8 4z"/>
<path d="M12976 3549 c-8 -12 -13 -26 -10 -31 3 -4 0 -8 -7 -8 -6 0 -9 -8 -6
-20 3 -10 0 -21 -7 -24 -7 -3 -7 -5 2 -5 7 -1 17 11 22 25 6 14 15 22 21 19 7
-5 6 -12 -4 -23 -8 -10 -17 -28 -20 -42 l-6 -25 16 23 c19 27 38 30 23 3 -12
-24 -13 -31 -2 -31 5 0 17 19 28 43 10 23 29 59 41 80 13 20 20 37 15 37 -4 0
-16 -13 -25 -30 -16 -27 -47 -33 -47 -8 0 5 4 7 9 4 5 -3 14 1 21 9 11 13 10
14 -4 9 -9 -3 -23 -1 -30 5 -11 9 -17 7 -30 -10z m54 -46 c0 -5 -5 -15 -10
-23 -8 -12 -10 -11 -10 8 0 12 5 22 10 22 6 0 10 -3 10 -7z"/>
<path d="M12223 3548 c2 -7 10 -37 17 -65 8 -29 18 -53 23 -53 5 0 7 6 5 13
-3 6 -13 36 -22 65 -10 28 -20 52 -23 52 -3 0 -3 -6 0 -12z"/>
<path d="M12164 3395 c1 -143 -13 -207 -61 -268 -14 -18 -7 -13 15 11 37 39
42 41 65 31 l26 -12 -30 -31 c-16 -17 -24 -33 -18 -35 6 -2 31 18 56 45 47 52
82 139 63 158 -7 7 -10 5 -11 -4 -2 -30 -4 -36 -23 -78 -18 -39 -36 -55 -36
-32 0 6 4 10 9 10 9 0 24 60 16 68 -2 3 -11 -1 -20 -8 -20 -16 -22 -8 -30 110
-10 160 -22 181 -21 35z m46 -187 c0 -4 -4 -8 -9 -8 -6 0 -12 4 -15 8 -3 5 1
9 9 9 8 0 15 -4 15 -9z"/>
<path d="M10935 3500 c3 -5 8 -10 11 -10 2 0 4 5 4 10 0 6 -5 10 -11 10 -5 0
-7 -4 -4 -10z"/>
<path d="M10971 3474 c0 -11 3 -14 6 -6 3 7 2 16 -1 19 -3 4 -6 -2 -5 -13z"/>
<path d="M12505 3450 c-16 -25 -29 -53 -30 -62 -1 -10 -5 -21 -10 -25 -4 -5
-5 -1 0 7 15 28 -10 -4 -50 -64 -49 -73 -137 -163 -207 -211 -64 -44 -26 -38
46 8 89 56 191 179 257 310 37 72 33 98 -6 37z"/>
<path d="M13480 3475 c-7 -9 -8 -15 -2 -15 5 0 12 7 16 15 3 8 4 15 2 15 -2 0
-9 -7 -16 -15z"/>
<path d="M10930 3463 c0 -5 6 -18 14 -28 13 -18 13 -18 12 5 -1 21 -26 43 -26
23z"/>
<path d="M11270 3450 c0 -5 5 -10 10 -10 6 0 10 5 10 10 0 6 -4 10 -10 10 -5
0 -10 -4 -10 -10z"/>
<path d="M13466 3433 c-6 -14 -5 -15 5 -6 7 7 10 15 7 18 -3 3 -9 -2 -12 -12z"/>
<path d="M17296 3423 c-6 -14 -5 -15 5 -6 7 7 10 15 7 18 -3 3 -9 -2 -12 -12z"/>
<path d="M12271 3404 c0 -11 3 -14 6 -6 3 7 2 16 -1 19 -3 4 -6 -2 -5 -13z"/>
<path d="M13427 3379 c-16 -16 -25 -34 -22 -39 4 -6 2 -9 -3 -8 -6 2 -24 -17
-42 -41 -17 -24 -26 -40 -20 -36 8 5 11 3 8 -6 -3 -8 -11 -13 -17 -11 -6 1
-10 -4 -8 -10 1 -7 -3 -12 -10 -11 -7 2 -10 -3 -7 -10 2 -7 -9 -26 -26 -42
-35 -33 -41 -23 -8 14 19 22 17 21 -9 -3 -18 -16 -29 -34 -26 -40 3 -6 3 -8
-2 -4 -10 10 -64 -22 -76 -45 -7 -13 -17 -15 -36 -11 -17 5 -24 3 -19 -4 3 -6
-3 -12 -16 -15 -21 -4 -20 -4 3 -6 33 -1 102 26 95 38 -3 5 2 8 12 7 9 0 16 5
14 12 -1 8 2 11 9 7 13 -9 53 29 124 115 50 61 120 169 113 175 -2 2 -16 -10
-31 -26z"/>
<path d="M17478 3403 c7 -3 16 -2 19 1 4 3 -2 6 -13 5 -11 0 -14 -3 -6 -6z"/>
<path d="M10915 3391 c-3 -5 -1 -12 5 -16 5 -3 10 1 10 9 0 18 -6 21 -15 7z"/>
<path d="M17276 3383 c-3 -10 -17 -36 -31 -58 -23 -35 -23 -37 -3 -13 33 39
61 88 50 88 -5 0 -12 -8 -16 -17z"/>
<path d="M16875 3308 c-27 -40 -48 -78 -48 -85 0 -7 -4 -10 -8 -8 -8 6 -65
-66 -61 -77 1 -5 -3 -7 -9 -5 -6 1 -16 -7 -22 -18 -7 -11 -16 -23 -22 -27 -6
-5 -5 -8 3 -8 19 0 103 90 95 102 -3 7 -1 8 5 4 9 -5 87 94 90 114 1 8 22 62
28 71 3 5 3 9 1 9 -2 0 -26 -33 -52 -72z"/>
<path d="M17391 3354 c0 -11 3 -14 6 -6 3 7 2 16 -1 19 -3 4 -6 -2 -5 -13z"/>
<path d="M11250 3292 c-8 -34 -18 -62 -23 -62 -5 0 -7 7 -3 15 3 8 1 15 -4 15
-6 0 -10 -10 -11 -22 0 -22 -1 -22 -9 -3 -6 17 -9 14 -15 -18 -15 -78 14 -167
54 -167 19 0 21 10 6 43 -4 10 -5 21 -1 24 3 4 6 0 6 -9 0 -8 11 -20 25 -26
38 -18 41 -15 10 10 -28 22 -29 24 -9 128 4 25 -1 17 -18 -29 -17 -46 -19 -13
-3 63 9 43 14 83 12 89 -2 6 -10 -17 -17 -51z"/>
<path d="M11994 3337 c3 -10 1 -28 -5 -39 -14 -25 9 -21 25 5 8 13 6 21 -8 34
-18 17 -19 17 -12 0z"/>
<path d="M11176 3323 c-6 -14 -5 -15 5 -6 7 7 10 15 7 18 -3 3 -9 -2 -12 -12z"/>
<path d="M11651 3314 c0 -11 3 -14 6 -6 3 7 2 16 -1 19 -3 4 -6 -2 -5 -13z"/>
<path d="M17011 3314 c0 -11 3 -14 6 -6 3 7 2 16 -1 19 -3 4 -6 -2 -5 -13z"/>
<path d="M11208 3309 c-3 -8 1 -20 8 -27 15 -14 17 -7 5 22 -6 15 -9 16 -13 5z"/>
<path d="M16908 3303 c7 -3 16 -2 19 1 4 3 -2 6 -13 5 -11 0 -14 -3 -6 -6z"/>
<path d="M12215 3290 c-3 -5 -1 -10 4 -10 6 0 11 5 11 10 0 6 -2 10 -4 10 -3
0 -8 -4 -11 -10z"/>
<path d="M12951 3223 c0 -40 2 -73 7 -73 4 0 6 24 4 52 -5 89 -9 97 -11 21z"/>
<path d="M16983 3274 c-7 -7 -13 -18 -13 -24 0 -15 20 -12 26 5 9 22 0 35 -13
19z"/>
<path d="M16937 3256 c4 -20 2 -27 -5 -22 -8 5 -10 2 -6 -8 4 -9 1 -16 -6 -16
-9 0 -11 -11 -7 -37 5 -30 4 -34 -5 -19 -5 10 -8 34 -5 52 4 20 2 32 -4 29
-14 -9 -11 -113 6 -144 18 -36 63 -55 107 -46 43 10 120 65 114 82 -3 7 0 15
6 19 7 5 8 2 3 -7 -5 -8 1 -5 13 5 23 20 29 32 11 20 -7 -4 -10 -1 -7 7 3 8
10 13 15 12 5 -1 9 6 9 16 0 11 -21 -5 -60 -47 -37 -39 -70 -65 -88 -69 -15
-3 -28 -9 -28 -14 0 -5 -6 -9 -12 -9 -17 0 -22 74 -9 129 9 40 5 47 -23 42 -5
-1 -6 7 -3 19 3 11 1 18 -3 15 -5 -3 -11 1 -14 7 -3 7 -2 0 1 -16z m24 -67
c-10 -23 -10 -22 -7 6 6 39 7 42 12 29 3 -6 0 -22 -5 -35z m-24 -11 c-3 -8 -6
-5 -6 6 -1 11 2 17 5 13 3 -3 4 -12 1 -19z m28 -98 c-3 -5 -12 -10 -18 -10 -7
0 -6 4 3 10 19 12 23 12 15 0z"/>
<path d="M16900 3260 c0 -5 5 -10 11 -10 5 0 7 5 4 10 -3 6 -8 10 -11 10 -2 0
-4 -4 -4 -10z"/>
<path d="M17271 3244 c0 -11 3 -14 6 -6 3 7 2 16 -1 19 -3 4 -6 -2 -5 -13z"/>
<path d="M11526 3224 c-9 -24 -7 -64 3 -64 11 0 20 69 10 76 -4 2 -10 -3 -13
-12z"/>
<path d="M11815 3199 c-4 -6 -5 -12 -2 -15 2 -3 7 2 10 11 7 17 1 20 -8 4z"/>
<path d="M11395 3140 c-40 -41 -55 -73 -28 -63 11 4 11 8 3 13 -9 5 -9 9 -1
14 6 4 15 5 19 2 5 -3 24 11 43 32 23 25 25 29 7 13 -30 -27 -38 -19 -11 11
31 34 7 18 -32 -22z"/>
<path d="M11767 3143 c5 -12 2 -15 -10 -10 -12 4 -14 2 -10 -10 5 -12 2 -15
-8 -11 -10 4 -15 -1 -15 -13 0 -16 6 -14 33 13 38 37 37 34 19 41 -11 4 -13 1
-9 -10z"/>
<path d="M12146 3135 c-11 -8 -15 -15 -9 -15 6 0 16 7 23 15 16 19 11 19 -14
0z"/>
<path d="M11530 3126 c0 -22 50 -76 68 -75 14 0 14 2 2 6 -21 8 -50 45 -50 66
0 9 -4 17 -10 17 -5 0 -10 -6 -10 -14z"/>
<path d="M11900 3132 c0 -5 10 -17 22 -28 l21 -19 -18 28 c-18 28 -25 33 -25
19z"/>
<path d="M12966 3127 c3 -10 9 -15 12 -12 3 3 0 11 -7 18 -10 9 -11 8 -5 -6z"/>
<path d="M11880 3121 c0 -6 4 -13 10 -16 6 -3 7 1 4 9 -7 18 -14 21 -14 7z"/>
<path d="M11910 3086 c0 -2 8 -10 18 -17 15 -13 16 -12 3 4 -13 16 -21 21 -21
13z"/>
<path d="M12033 3077 c-17 -7 -35 -15 -38 -19 -10 -10 35 -20 65 -14 14 2 40
5 58 5 17 1 32 5 32 9 0 4 -16 6 -36 4 -29 -4 -35 -2 -29 9 6 11 5 12 -6 2 -7
-7 -22 -13 -33 -12 -20 0 -20 1 2 9 12 5 22 12 22 15 0 3 -1 5 -2 4 -2 0 -17
-6 -35 -12z"/>
<path d="M17960 3080 c8 -5 20 -10 25 -10 6 0 3 5 -5 10 -8 5 -19 10 -25 10
-5 0 -3 -5 5 -10z"/>
<path d="M12998 3053 c7 -3 16 -2 19 1 4 3 -2 6 -13 5 -11 0 -14 -3 -6 -6z"/>
<path d="M11133 2898 c-1 -24 -2 -47 -3 -53 -1 -5 -2 -19 -1 -30 1 -16 3 -17
10 -6 5 8 7 25 5 38 -3 14 -1 22 3 20 4 -3 7 9 6 26 -2 47 -2 47 -11 47 -5 0
-9 -19 -9 -42z"/>
<path d="M14220 2910 c-14 -4 -54 -8 -89 -9 -35 -1 -62 -4 -59 -7 12 -11 126
-5 159 10 36 15 30 19 -11 6z"/>
<path d="M11110 2779 c0 -5 5 -7 10 -4 6 3 10 8 10 11 0 2 -4 4 -10 4 -5 0
-10 -5 -10 -11z"/>
<path d="M10735 2700 c-3 -5 1 -10 10 -10 9 0 13 5 10 10 -3 6 -8 10 -10 10
-2 0 -7 -4 -10 -10z"/>
<path d="M10670 2680 c20 -13 33 -13 25 0 -3 6 -14 10 -23 10 -15 0 -15 -2 -2
-10z"/>
<path d="M10763 2663 c9 -2 25 -2 35 0 9 3 1 5 -18 5 -19 0 -27 -2 -17 -5z"/>
</g>
</svg>
